<?xml version="1.0" encoding="UTF-8" standalone="no"?>
<svg
   width="48"
   height="48"
   viewBox="0 96 960 960"
   version="1.1"
   id="svg8"
   sodipodi:docname="device_exclamation_c3.svg"
   inkscape:version="1.2.2 (732a01da63, 2022-12-09, custom)"
   xmlns:inkscape="http://www.inkscape.org/namespaces/inkscape"
   xmlns:sodipodi="http://sodipodi.sourceforge.net/DTD/sodipodi-0.dtd"
   xmlns="http://www.w3.org/2000/svg"
   xmlns:svg="http://www.w3.org/2000/svg">
  <defs
     id="defs12" />
  <sodipodi:namedview
     id="namedview10"
     pagecolor="#ffffff"
     bordercolor="#000000"
     borderopacity="0.25"
     inkscape:showpageshadow="2"
     inkscape:pageopacity="0.0"
     inkscape:pagecheckerboard="0"
     inkscape:deskcolor="#d1d1d1"
     showgrid="false"
     inkscape:zoom="21.395833"
     inkscape:cx="23.976631"
     inkscape:cy="24"
     inkscape:window-width="3768"
     inkscape:window-height="2096"
     inkscape:window-x="72"
     inkscape:window-y="27"
     inkscape:window-maximized="1"
     inkscape:current-layer="svg8" />
  <path
     d="M40 356c0-16 6-30 18-42s26-18 42-18h760c16 0 30 6 42 18s18 26 18 42v440c0 16-6 30-18 42s-26 18-42 18H100c-16 0-30-6-42-18s-18-26-18-42Zm90 0h-30v440h30zm60 0v440h580V356Zm640 0v440h30V356Zm0 0h30zm-700 0h-30z"
     id="path2" />
  <path
     d="M 452,660.89638 V 393.66474 h 56 v 267.23164 z"
     id="path4"
     style="stroke-width:0.81016" />
  <path
     d="m 452,759.764 v -60 h 56 v 60 z"
     style="stroke-width:1.53004"
     id="path6" />
</svg>
