<svg xmlns="http://www.w3.org/2000/svg" width="48" height="48" viewBox="0 96 960 960"><path d="M180 936c-16.5 0-30.625-5.875-42.375-17.625S120 892.5 120 876V704h60v172h172v60zm428 0v-60h172V704h60v172c0 16.5-5.875 30.625-17.625 42.375S796.5 936 780 936ZM120 448V276c0-16.5 5.875-30.625 17.625-42.375S163.5 216 180 216h172v60H180v172zm660 0V276H608v-60h172c16.5 0 30.625 5.875 42.375 17.625S840 259.5 840 276v172z"/><path d="M453 669.56V343.9h54v325.66z" style="stroke-width:.878237"/><path d="M453 798.68v-54h54v54z" style="stroke-width:.9"/></svg>