<?xml version="1.0" encoding="UTF-8" standalone="no"?>
<svg
   width="48"
   height="48"
   viewBox="0 96 960 960"
   version="1.1"
   id="svg8"
   sodipodi:docname="device_question_c3.svg"
   inkscape:version="1.2.2 (732a01da63, 2022-12-09, custom)"
   xmlns:inkscape="http://www.inkscape.org/namespaces/inkscape"
   xmlns:sodipodi="http://sodipodi.sourceforge.net/DTD/sodipodi-0.dtd"
   xmlns="http://www.w3.org/2000/svg"
   xmlns:svg="http://www.w3.org/2000/svg">
  <defs
     id="defs12" />
  <sodipodi:namedview
     id="namedview10"
     pagecolor="#ffffff"
     bordercolor="#000000"
     borderopacity="0.25"
     inkscape:showpageshadow="2"
     inkscape:pageopacity="0.0"
     inkscape:pagecheckerboard="0"
     inkscape:deskcolor="#d1d1d1"
     showgrid="false"
     inkscape:zoom="10.697917"
     inkscape:cx="43.279455"
     inkscape:cy="8.6465433"
     inkscape:window-width="3768"
     inkscape:window-height="2096"
     inkscape:window-x="72"
     inkscape:window-y="27"
     inkscape:window-maximized="1"
     inkscape:current-layer="svg8" />
  <path
     d="M40 356c0-16 6-30 18-42s26-18 42-18h760c16 0 30 6 42 18s18 26 18 42v440c0 16-6 30-18 42s-26 18-42 18H100c-16 0-30-6-42-18s-18-26-18-42Zm90 0h-30v440h30zm60 0v440h580V356Zm640 0v440h30V356Zm0 0h30zm-700 0h-30z"
     id="path2" />
  <path
     d="m 484.37454,761.32112 c 8.48393,0 15.64226,-2.91635 21.47496,-8.74907 5.83272,-5.8327 8.74908,-12.99103 8.74908,-21.47498 0,-8.48395 -2.91636,-15.64227 -8.74908,-21.47498 -5.8327,-5.83271 -12.99103,-8.74906 -21.47496,-8.74906 -8.48395,0 -15.64228,2.91635 -21.47499,8.74906 -5.83269,5.83271 -8.74905,12.99103 -8.74905,21.47498 0,8.48395 2.91636,15.64228 8.74905,21.47498 5.83271,5.83272 12.99104,8.74907 21.47499,8.74907 z M 456.5366,645.19715 h 46.9268 c 0,-13.7864 1.72332,-26.37976 5.16991,-37.78005 3.44658,-11.4003 14.18408,-24.52388 32.21247,-39.3708 16.43763,-13.78639 28.10304,-27.30768 34.99626,-40.56384 6.89321,-13.25617 10.3398,-27.83794 10.3398,-43.74534 0,-28.10305 -9.14674,-50.63853 -27.44024,-67.60641 -18.2935,-16.96787 -42.55229,-25.45183 -72.77631,-25.45183 -25.98209,0 -48.91524,6.49553 -68.79949,19.48657 -19.88423,12.99103 -34.33345,30.88684 -43.34764,53.68744 l 42.15459,15.9074 c 5.83271,-14.84691 14.58178,-26.37977 26.2472,-34.59859 11.66542,-8.21882 25.45183,-12.32823 41.35921,-12.32823 18.02837,0 32.61015,4.9048 43.74533,14.71434 11.13518,9.80956 16.70276,22.40292 16.70276,37.78005 0,11.66543 -3.4466,22.66804 -10.3398,33.00785 -6.89321,10.3398 -16.96789,21.07729 -30.22405,32.21246 -15.9074,13.78641 -27.70537,27.44025 -35.39394,40.96153 -7.68857,13.52129 -11.53286,31.41711 -11.53286,53.68745 z"
     id="path322"
     style="opacity:1;stroke-width:0.795369" />
</svg>
